# xmcd
#
# Track frame offsets: 
#        150
#        27355
#        36908
#        50601
#        69791
#        98787
#        115335
#        137813
#        153967
#        179282
#        191558
#        214525
#        239707
#        271095
#
# Disc length: 3890 seconds
#
# Revision: 1
# Processed by: cddbd v1.5.2PL0 Copyright (c) Steve Scherf et al.
# Submitted via: ExactAudioCopy v1.0b1
#
DISCID=c20f300e
DTITLE=Stanisław Soyka Kwintet - Koncert w klubie Pod Pretekstem [CD1)
DYEAR=2004
DGENRE=Jazz
TTITLE0=Niech całują Cię moje oczy
TTITLE1=Popołudniowe miasto
TTITLE2=Co tak na mnie patrzysz
TTITLE3=Czekanie na Ciebie
TTITLE4=Cud niepamięci
TTITLE5=Są na tym świecie rzeczy
TTITLE6=Życie to krótki sen
TTITLE7=To Twoja droga
TTITLE8=Zaczepka platoniczna
TTITLE9=Allegro ma non troppo
TTITLE10=Absolutnie nic
TTITLE11=Moja rzeczywistość
TTITLE12=Nocny papieros
TTITLE13=Czas nas uczy pogody
EXTD=YEAR: 2004
EXTT0=
EXTT1=
EXTT2=
EXTT3=
EXTT4=
EXTT5=
EXTT6=
EXTT7=
EXTT8=
EXTT9=
EXTT10=
EXTT11=
EXTT12=
EXTT13=
PLAYORDER=
